<svg width="135" height="48" viewBox="0 0 135 48" fill="none" xmlns="http://www.w3.org/2000/svg">
<path d="M15.1693 1.28917C15.1693 1.28917 19.2214 0.835076 21.2507 1.17508C43.591 4.91912 33.7432 36.8896 12.8717 27.023C12.2725 27.9124 11.6903 28.7964 11.1564 29.6725L6.23324 30.0216C5.57685 30.0682 5.56157 29.4985 5.79165 29.165L9.27978 23.7797C4.4836 16.9731 2.21481 6.4556 11.7815 5.39654C14.1976 5.1291 17.406 6.71055 18.8387 10.4148C20.3948 14.4381 18.3893 18.6173 15.7396 22.7489C28.4182 28.895 35.3843 9.05336 20.7119 6.0976C19.103 5.77355 15.5095 6.08571 15.5095 6.08571L15.1693 1.28917ZM12.9052 10.2805C12.8055 8.87501 10.6771 9.02629 10.7768 10.4314L10.8818 11.9121L9.55317 11.2622C8.28768 10.6432 7.35416 12.5687 8.61965 13.1876L9.95026 13.8383L8.72472 14.6692C7.55129 15.4655 8.76697 17.2232 9.92062 16.4436L11.1442 15.6127L11.2493 17.0944C11.349 18.4998 13.4773 18.3485 13.3777 16.9434L13.2727 15.4618L14.6032 16.1115C15.8661 16.7276 16.7965 14.8024 15.5357 14.1862L14.2042 13.5366L15.4307 12.7046C16.5921 11.9158 15.3969 10.1416 14.2348 10.9302L13.0103 11.7621L12.9052 10.2805Z" fill="#176AF6"/>
<path d="M39.5074 29.6398C38.2655 29.6398 37.2662 29.3779 36.5094 28.854C35.772 28.3106 35.2772 27.5539 35.025 26.5837C34.7727 25.6134 34.7533 24.4783 34.9668 23.1782L36.4803 14.621H39.9731L38.5177 22.858C38.3237 24.0805 38.411 25.0313 38.7797 25.7105C39.1484 26.3702 39.8954 26.7001 41.0209 26.7001C41.7194 26.7001 42.3695 26.5351 42.971 26.2053C43.5919 25.8754 44.1159 25.4097 44.5428 24.8082C44.9891 24.1872 45.2995 23.4402 45.4742 22.567L46.8713 14.621H50.364L47.7736 29.2906H44.6883L44.8047 26.9038C44.242 27.7382 43.4949 28.4077 42.5635 28.9122C41.6515 29.3973 40.6328 29.6398 39.5074 29.6398ZM50.2612 29.2906L52.8517 14.621H55.937L55.7914 17.0077C56.393 16.1733 57.1497 15.5135 58.0617 15.0284C58.9737 14.5239 59.9925 14.2717 61.1179 14.2717C62.3598 14.2717 63.3494 14.5433 64.0868 15.0867C64.8241 15.6106 65.3286 16.3576 65.6003 17.3278C65.8719 18.2787 65.8913 19.4138 65.6585 20.7333L64.145 29.2906H60.6522L62.1075 21.0535C62.3016 19.8504 62.1948 18.919 61.7874 18.2592C61.3993 17.5801 60.6522 17.2405 59.5462 17.2405C58.867 17.2405 58.217 17.4055 57.596 17.7353C56.9945 18.0458 56.4803 18.5115 56.0534 19.1324C55.6265 19.734 55.3257 20.4713 55.1511 21.3445L53.754 29.2906H50.2612ZM72.3375 29.6398C70.9986 29.6398 69.8732 29.4264 68.9612 28.9995C68.0686 28.5532 67.4088 27.942 66.9819 27.1658C66.555 26.3896 66.3804 25.5067 66.458 24.5171H69.9508C69.9508 24.9634 70.0478 25.3709 70.2418 25.7396C70.4359 26.1083 70.7463 26.3993 71.1732 26.6128C71.6001 26.8262 72.1337 26.9329 72.7741 26.9329C73.3562 26.9329 73.851 26.8456 74.2585 26.671C74.666 26.4963 74.9862 26.2635 75.219 25.9724C75.4519 25.6814 75.5683 25.3321 75.5683 24.9246C75.6071 24.5365 75.5101 24.2357 75.2772 24.0223C75.0638 23.7895 74.7533 23.6051 74.3458 23.4693C73.9383 23.314 73.4435 23.1782 72.8614 23.0618C72.2211 22.926 71.6001 22.761 70.9986 22.567C70.3971 22.3535 69.8635 22.0916 69.3978 21.7811C68.9321 21.4706 68.5731 21.0923 68.3208 20.646C68.088 20.1803 67.9812 19.6272 68.0006 18.9869C68.0395 18.0749 68.3402 17.2696 68.9029 16.5711C69.4657 15.8531 70.2224 15.2904 71.1732 14.8829C72.124 14.4754 73.2107 14.2717 74.4332 14.2717C76.1601 14.2717 77.499 14.6792 78.4498 15.4941C79.4006 16.2897 79.8469 17.3861 79.7887 18.7832H76.4415C76.4221 18.2204 76.1989 17.7838 75.772 17.4734C75.3646 17.1629 74.7824 17.0077 74.0257 17.0077C73.2883 17.0077 72.6868 17.1629 72.2211 17.4734C71.7554 17.7838 71.5128 18.1816 71.4934 18.6667C71.474 18.9772 71.571 19.2489 71.7845 19.4817C71.9979 19.6952 72.3181 19.8795 72.745 20.0347C73.1719 20.19 73.6958 20.3355 74.3167 20.4713C75.0541 20.6266 75.7235 20.8109 76.3251 21.0243C76.9266 21.2184 77.4505 21.4706 77.8968 21.7811C78.3431 22.0722 78.673 22.4506 78.8864 22.9163C79.0999 23.3626 79.1872 23.9059 79.1484 24.5462C79.1096 25.594 78.7894 26.506 78.1879 27.2822C77.5863 28.039 76.7811 28.6211 75.772 29.0286C74.763 29.4361 73.6182 29.6398 72.3375 29.6398ZM79.1875 35.6939L82.9131 14.621H86.0275V16.7457C86.4156 16.28 86.8522 15.8628 87.3373 15.4941C87.8418 15.1255 88.4142 14.8344 89.0545 14.621C89.6949 14.3881 90.4031 14.2717 91.1793 14.2717C92.4406 14.2717 93.5078 14.5724 94.381 15.174C95.2736 15.7561 95.943 16.5517 96.3893 17.5607C96.855 18.5503 97.0491 19.6855 96.9715 20.9661C96.9327 22.1886 96.6901 23.3238 96.2438 24.3716C95.7975 25.4194 95.196 26.3411 94.4392 27.1367C93.6824 27.9129 92.8093 28.5241 91.8196 28.9704C90.8494 29.4167 89.7919 29.6398 88.6471 29.6398C87.9291 29.6398 87.2694 29.5331 86.6678 29.3197C86.0857 29.1062 85.5812 28.8151 85.1543 28.4465C84.7468 28.0778 84.4169 27.6703 84.1647 27.224L82.6803 35.6939H79.1875ZM88.5015 26.6128C89.3941 26.6128 90.1994 26.3896 90.9173 25.9433C91.6353 25.497 92.2077 24.8761 92.6346 24.0805C93.0809 23.2849 93.3332 22.3923 93.3914 21.4027C93.4302 20.6072 93.3138 19.9086 93.0421 19.3071C92.7704 18.6861 92.363 18.201 91.8196 17.8518C91.2957 17.5025 90.6554 17.3278 89.8986 17.3278C89.006 17.3278 88.1911 17.5607 87.4537 18.0264C86.7357 18.4727 86.1536 19.0936 85.7073 19.8892C85.261 20.6848 85.0185 21.5968 84.9797 22.6252C84.9408 23.4014 85.0573 24.0902 85.3289 24.6917C85.62 25.2933 86.0275 25.7687 86.5514 26.118C87.0947 26.4478 87.7448 26.6128 88.5015 26.6128ZM97.7451 29.2906L100.306 14.621H103.799L101.238 29.2906H97.7451ZM102.839 12.3507C102.179 12.3507 101.645 12.1566 101.238 11.7685C100.83 11.361 100.627 10.8565 100.627 10.255C100.627 9.67288 100.83 9.18777 101.238 8.79968C101.645 8.3922 102.179 8.18845 102.839 8.18845C103.479 8.18845 104.003 8.38249 104.41 8.77058C104.837 9.15866 105.051 9.65347 105.051 10.255C105.051 10.8565 104.837 11.361 104.41 11.7685C104.003 12.1566 103.479 12.3507 102.839 12.3507ZM103.818 29.2906L106.409 14.621H109.523L109.377 17.2696C109.843 16.6487 110.377 16.1151 110.978 15.6688C111.58 15.2225 112.259 14.8829 113.016 14.6501C113.772 14.3978 114.568 14.2717 115.402 14.2717L114.762 17.9682H113.569C112.967 17.9682 112.395 18.0361 111.851 18.1719C111.308 18.3078 110.813 18.5309 110.367 18.8414C109.94 19.1518 109.571 19.569 109.261 20.0929C108.95 20.6169 108.727 21.2766 108.591 22.0722L107.311 29.2906H103.818ZM120.572 29.6398C119.272 29.6398 118.147 29.3682 117.196 28.8248C116.245 28.2815 115.527 27.5151 115.042 26.5254C114.576 25.5358 114.373 24.3813 114.431 23.0618C114.489 21.8393 114.741 20.7042 115.188 19.6564C115.634 18.5891 116.245 17.6577 117.021 16.8621C117.817 16.0472 118.739 15.4165 119.787 14.9702C120.854 14.5045 122.018 14.2717 123.279 14.2717C124.599 14.2717 125.715 14.5433 126.627 15.0867C127.539 15.63 128.218 16.3673 128.664 17.2987C129.11 18.2107 129.304 19.2586 129.246 20.4422C129.246 20.8303 129.207 21.2378 129.13 21.6647C129.052 22.0722 128.965 22.4506 128.868 22.7998H116.934L117.342 20.5586H125.812C125.889 19.8213 125.802 19.2004 125.55 18.6958C125.317 18.1913 124.958 17.8032 124.473 17.5316C124.007 17.2599 123.454 17.1241 122.814 17.1241C122.096 17.1241 121.407 17.289 120.747 17.6189C120.087 17.9488 119.515 18.4436 119.03 19.1033C118.564 19.7437 118.244 20.5586 118.069 21.5483L117.924 22.3923C117.768 23.2461 117.788 24.0029 117.982 24.6626C118.195 25.3224 118.564 25.8366 119.088 26.2053C119.612 26.574 120.272 26.7583 121.067 26.7583C121.882 26.7583 122.581 26.5837 123.163 26.2344C123.764 25.8851 124.24 25.4194 124.589 24.8373H128.14C127.713 25.7493 127.121 26.574 126.365 27.3113C125.627 28.0293 124.764 28.6017 123.774 29.0286C122.804 29.4361 121.737 29.6398 120.572 29.6398Z" fill="#176AF6"/>
<path d="M4.28508 40.4011L3.36831 45.9233H2.69962L3.61638 40.4011H4.28508ZM5.66899 43.4319L5.25914 45.9233H4.6228L5.31307 41.7817H5.92784L5.81998 42.4288H5.87391C6.00334 42.2185 6.1786 42.0495 6.3997 41.9219C6.6208 41.7925 6.88774 41.7278 7.20052 41.7278C7.47735 41.7278 7.71103 41.7853 7.90157 41.9003C8.09392 42.0136 8.22963 42.1861 8.30873 42.418C8.38962 42.6481 8.4013 42.9393 8.34378 43.2916L7.90157 45.9233H7.26523L7.69665 43.3348C7.75058 43.0112 7.70834 42.7578 7.56992 42.5744C7.43331 42.3911 7.2167 42.2994 6.9201 42.2994C6.71517 42.2994 6.52553 42.3434 6.35117 42.4315C6.1786 42.5196 6.0321 42.6481 5.91166 42.8171C5.79302 42.9861 5.71213 43.191 5.66899 43.4319ZM10.1106 43.4319L9.70072 45.9233H9.06438L9.75465 41.7817H10.3694L10.2616 42.4288H10.3155C10.4449 42.2185 10.6202 42.0495 10.8413 41.9219C11.0624 41.7925 11.3293 41.7278 11.6421 41.7278C11.9189 41.7278 12.1526 41.7853 12.3432 41.9003C12.5355 42.0136 12.6712 42.1861 12.7503 42.418C12.8312 42.6481 12.8429 42.9393 12.7854 43.2916L12.3432 45.9233H11.7068L12.1382 43.3348C12.1922 43.0112 12.1499 42.7578 12.0115 42.5744C11.8749 42.3911 11.6583 42.2994 11.3617 42.2994C11.1568 42.2994 10.9671 42.3434 10.7928 42.4315C10.6202 42.5196 10.4737 42.6481 10.3532 42.8171C10.2346 42.9861 10.1537 43.191 10.1106 43.4319ZM15.2155 46.0096C14.8344 46.0096 14.5153 45.9188 14.2583 45.7372C14.0012 45.5557 13.8196 45.3013 13.7136 44.9742C13.6093 44.647 13.5922 44.2659 13.6624 43.8309C13.7307 43.4067 13.8664 43.0373 14.0695 42.7227C14.2744 42.4063 14.5288 42.1619 14.8326 41.9893C15.1382 41.8149 15.4743 41.7278 15.841 41.7278C16.2221 41.7278 16.5403 41.8194 16.7955 42.0028C17.0526 42.1843 17.2341 42.4396 17.3402 42.7685C17.4463 43.0957 17.4642 43.4786 17.3941 43.9172C17.3258 44.3378 17.1883 44.7054 16.9816 45.02C16.7767 45.3328 16.5223 45.5764 16.2185 45.7507C15.9165 45.9233 15.5822 46.0096 15.2155 46.0096ZM15.2262 45.4379C15.5175 45.4379 15.77 45.3633 15.9839 45.2142C16.1996 45.065 16.374 44.8681 16.507 44.6236C16.6418 44.3792 16.7326 44.1149 16.7794 43.8309C16.8225 43.5613 16.8207 43.3105 16.774 43.0786C16.7272 42.8449 16.6275 42.6571 16.4747 42.5151C16.3219 42.3713 16.1071 42.2994 15.8302 42.2994C15.539 42.2994 15.2847 42.3749 15.0672 42.5259C14.8515 42.6769 14.6771 42.8755 14.5441 43.1218C14.411 43.368 14.3221 43.6332 14.2771 43.9172C14.234 44.1868 14.2349 44.4376 14.2798 44.6695C14.3266 44.8996 14.4263 45.0856 14.5791 45.2276C14.7337 45.3678 14.9494 45.4379 15.2262 45.4379ZM21.9651 41.7817L19.7433 45.9233H19.0962L18.2549 41.7817H18.9182L19.5114 45.082H19.5546L21.2479 41.7817H21.9651ZM23.1967 46.0204C22.9342 46.0204 22.7042 45.9709 22.5064 45.8721C22.3087 45.7714 22.1622 45.6267 22.0669 45.4379C21.9716 45.2474 21.9456 45.0173 21.9887 44.7477C22.0301 44.5104 22.1101 44.3181 22.2287 44.1707C22.3473 44.0215 22.4911 43.9046 22.6601 43.8201C22.8309 43.7338 23.0142 43.67 23.2102 43.6287C23.4079 43.5855 23.6047 43.5523 23.8007 43.5289C24.0559 43.4966 24.2636 43.4714 24.4235 43.4534C24.5835 43.4354 24.704 43.4058 24.7849 43.3644C24.8657 43.3231 24.9152 43.2521 24.9332 43.1514V43.1299C24.9763 42.8656 24.9412 42.6598 24.828 42.5124C24.7147 42.3632 24.5125 42.2886 24.2213 42.2886C23.9193 42.2886 23.6668 42.3551 23.4636 42.4881C23.2605 42.6211 23.1104 42.7632 23.0133 42.9142L22.4525 42.6984C22.5999 42.4468 22.7761 42.2508 22.981 42.1106C23.1859 41.9686 23.4007 41.8698 23.6254 41.814C23.8501 41.7565 24.0667 41.7278 24.2752 41.7278C24.4083 41.7278 24.5584 41.7439 24.7255 41.7763C24.8927 41.8068 25.0491 41.8707 25.1947 41.9677C25.3421 42.0648 25.4527 42.2113 25.5264 42.4072C25.6019 42.6032 25.6126 42.8656 25.5587 43.1946L25.1057 45.9233H24.4694L24.5664 45.3625H24.5341C24.4766 45.4523 24.3885 45.5485 24.2698 45.651C24.153 45.7534 24.0047 45.8406 23.8249 45.9125C23.647 45.9844 23.4376 46.0204 23.1967 46.0204ZM23.38 45.4487C23.6317 45.4487 23.8519 45.3993 24.0407 45.3004C24.2312 45.2016 24.384 45.0739 24.499 44.9176C24.6159 44.7612 24.6887 44.5967 24.7174 44.4241L24.8145 43.8417C24.7822 43.8741 24.7183 43.9037 24.6231 43.9307C24.5278 43.9558 24.4199 43.9783 24.2995 43.9981C24.1809 44.0161 24.0649 44.0322 23.9517 44.0466C23.8402 44.0592 23.7503 44.07 23.682 44.079C23.5131 44.1006 23.3522 44.1356 23.1994 44.1841C23.0484 44.2309 22.9208 44.3019 22.8165 44.3972C22.714 44.4906 22.6502 44.6183 22.6251 44.78C22.5873 45.0011 22.6403 45.1683 22.7842 45.2816C22.928 45.393 23.1266 45.4487 23.38 45.4487ZM28.7586 41.7817L28.6723 42.321H26.526L26.6123 41.7817H28.7586ZM27.3997 40.7894H28.036L27.3781 44.7369C27.3493 44.9167 27.3538 45.0515 27.3916 45.1413C27.4311 45.2294 27.4904 45.2887 27.5695 45.3193C27.6504 45.3481 27.7376 45.3625 27.8311 45.3625C27.9012 45.3625 27.9587 45.3589 28.0036 45.3517C28.0486 45.3427 28.0845 45.3355 28.1115 45.3301L28.1546 45.9017C28.1061 45.9179 28.0405 45.9341 27.9578 45.9503C27.8769 45.9682 27.7771 45.9772 27.6585 45.9772C27.4787 45.9772 27.3098 45.9386 27.1516 45.8613C26.9934 45.784 26.8721 45.6662 26.7876 45.5081C26.7031 45.3499 26.6806 45.1503 26.7202 44.9095L27.3997 40.7894ZM29.0256 45.9233L29.7158 41.7817H30.3522L29.6619 45.9233H29.0256ZM30.2281 41.0806C30.1041 41.0806 29.9971 41.0384 29.9073 40.9539C29.8192 40.8694 29.7751 40.7678 29.7751 40.6492C29.7751 40.5306 29.8192 40.429 29.9073 40.3445C29.9971 40.26 30.1041 40.2178 30.2281 40.2178C30.3522 40.2178 30.4582 40.26 30.5463 40.3445C30.6362 40.429 30.6811 40.5306 30.6811 40.6492C30.6811 40.7678 30.6362 40.8694 30.5463 40.9539C30.4582 41.0384 30.3522 41.0806 30.2281 41.0806ZM31.8736 43.4319L31.4637 45.9233H30.8274L31.5177 41.7817H32.1324L32.0246 42.4288H32.0785C32.2079 42.2185 32.3832 42.0495 32.6043 41.9219C32.8254 41.7925 33.0923 41.7278 33.4051 41.7278C33.682 41.7278 33.9156 41.7853 34.1062 41.9003C34.2985 42.0136 34.4342 42.1861 34.5133 42.418C34.5942 42.6481 34.6059 42.9393 34.5484 43.2916L34.1062 45.9233H33.4698L33.9013 43.3348C33.9552 43.0112 33.9129 42.7578 33.7745 42.5744C33.6379 42.3911 33.4213 42.2994 33.1247 42.2994C32.9198 42.2994 32.7301 42.3434 32.5558 42.4315C32.3832 42.5196 32.2367 42.6481 32.1163 42.8171C31.9976 42.9861 31.9167 43.191 31.8736 43.4319ZM36.6819 47.5627C36.3727 47.5627 36.1138 47.5231 35.9053 47.444C35.6968 47.3667 35.5296 47.2643 35.4038 47.1367C35.278 47.0108 35.1827 46.876 35.118 46.7322L35.6896 46.3763C35.7328 46.4518 35.7885 46.5381 35.8568 46.6351C35.9251 46.734 36.0285 46.8194 36.1669 46.8913C36.3071 46.965 36.5039 47.0018 36.7574 47.0018C37.0899 47.0018 37.3811 46.9209 37.631 46.7592C37.8809 46.5974 38.0355 46.3439 38.0948 45.9988L38.2242 45.1575H38.1703C38.1128 45.233 38.0328 45.3265 37.9303 45.4379C37.8278 45.5476 37.6903 45.6456 37.5178 45.7319C37.3452 45.8163 37.1241 45.8586 36.8544 45.8586C36.5183 45.8586 36.2307 45.7795 35.9916 45.6213C35.7525 45.4631 35.5809 45.233 35.4766 44.931C35.3741 44.629 35.3589 44.2623 35.4308 43.8309C35.5009 43.4067 35.6357 43.0373 35.8352 42.7227C36.0366 42.4063 36.2846 42.1619 36.5794 41.9893C36.8742 41.8149 37.196 41.7278 37.5447 41.7278C37.8144 41.7278 38.0211 41.7727 38.1649 41.8626C38.3105 41.9507 38.4165 42.0513 38.4831 42.1646C38.5496 42.276 38.5999 42.3677 38.634 42.4396H38.6988L38.8066 41.7817H39.4214L38.7203 46.0419C38.661 46.3979 38.5325 46.6873 38.3348 46.9102C38.137 47.1349 37.8943 47.2993 37.6067 47.4036C37.3191 47.5097 37.0108 47.5627 36.6819 47.5627ZM37.0162 45.287C37.2697 45.287 37.4953 45.2285 37.693 45.1117C37.8925 44.9948 38.0579 44.8268 38.1891 44.6075C38.3204 44.3882 38.4111 44.1257 38.4615 43.8201C38.5118 43.5217 38.5082 43.2584 38.4507 43.0301C38.3932 42.8018 38.2844 42.6229 38.1244 42.4935C37.9662 42.3641 37.7586 42.2994 37.5016 42.2994C37.2301 42.2994 36.9956 42.3677 36.7978 42.5043C36.6019 42.6409 36.4428 42.8243 36.3206 43.0544C36.1983 43.2845 36.1138 43.5397 36.0671 43.8201C36.0204 44.1077 36.0222 44.3621 36.0725 44.5832C36.1228 44.8025 36.2253 44.9751 36.3799 45.1009C36.5363 45.2249 36.7484 45.287 37.0162 45.287ZM44.5229 41.7817L44.4366 42.321H42.2903L42.3766 41.7817H44.5229ZM43.1639 40.7894H43.8003L43.1424 44.7369C43.1136 44.9167 43.1181 45.0515 43.1558 45.1413C43.1954 45.2294 43.2547 45.2887 43.3338 45.3193C43.4147 45.3481 43.5019 45.3625 43.5954 45.3625C43.6655 45.3625 43.723 45.3589 43.7679 45.3517C43.8129 45.3427 43.8488 45.3355 43.8758 45.3301L43.9189 45.9017C43.8704 45.9179 43.8048 45.9341 43.7221 45.9503C43.6412 45.9682 43.5414 45.9772 43.4228 45.9772C43.243 45.9772 43.0741 45.9386 42.9159 45.8613C42.7577 45.784 42.6363 45.6662 42.5519 45.5081C42.4674 45.3499 42.4449 45.1503 42.4845 44.9095L43.1639 40.7894ZM45.925 43.4319L45.5152 45.9233H44.8788L45.7956 40.4011H46.4319L46.0976 42.4288H46.1515C46.2809 42.2131 46.4535 42.0423 46.6692 41.9165C46.8867 41.7907 47.1599 41.7278 47.4889 41.7278C47.7693 41.7278 48.0057 41.7844 48.198 41.8976C48.3922 42.0091 48.5288 42.1807 48.6079 42.4126C48.6888 42.6427 48.7005 42.9357 48.6429 43.2916L48.2007 45.9233H47.5644L47.9958 43.3348C48.0497 43.0058 48.0057 42.7515 47.8637 42.5717C47.7235 42.3902 47.5051 42.2994 47.2085 42.2994C47 42.2994 46.8058 42.3434 46.6261 42.4315C46.4481 42.5196 46.2971 42.6481 46.1731 42.8171C46.0508 42.9861 45.9682 43.191 45.925 43.4319ZM51.0906 46.0096C50.6933 46.0096 50.3652 45.9215 50.1064 45.7453C49.8475 45.5674 49.6669 45.3193 49.5644 45.0011C49.462 44.6812 49.4458 44.3091 49.5159 43.8848C49.586 43.4606 49.7253 43.0867 49.9338 42.7632C50.1423 42.4378 50.4021 42.1843 50.7131 42.0028C51.0241 41.8194 51.3656 41.7278 51.7377 41.7278C51.9534 41.7278 52.161 41.7637 52.3606 41.8356C52.5601 41.9075 52.7327 42.0244 52.8783 42.1861C53.0239 42.3461 53.1254 42.5582 53.1829 42.8225C53.2405 43.0867 53.2369 43.4121 53.1722 43.7986L53.129 44.0682H49.9365L50.0228 43.5181H52.5682C52.6095 43.2845 52.5987 43.0759 52.5358 42.8926C52.4747 42.7092 52.3677 42.5645 52.215 42.4585C52.064 42.3524 51.8725 42.2994 51.6406 42.2994C51.4015 42.2994 51.1787 42.3641 50.9719 42.4935C50.7652 42.6211 50.5926 42.7829 50.4542 42.9789C50.3158 43.173 50.2295 43.3707 50.1954 43.5721L50.1199 44.0466C50.066 44.39 50.074 44.6632 50.1441 44.8663C50.216 45.0694 50.341 45.2159 50.5189 45.3058C50.6969 45.3939 50.9198 45.4379 51.1876 45.4379C51.3584 45.4379 51.5157 45.4146 51.6595 45.3678C51.8033 45.3193 51.9318 45.2474 52.0451 45.1521C52.1583 45.0551 52.2536 44.9346 52.3309 44.7908L52.9133 44.9634C52.8144 45.1719 52.6751 45.3553 52.4954 45.5134C52.3174 45.6698 52.1089 45.7921 51.8698 45.8802C51.6325 45.9664 51.3728 46.0096 51.0906 46.0096ZM56.0209 45.9233L56.9376 40.4011H60.2488L60.1517 40.9943H57.5093L57.1965 42.8602H59.5909L59.4938 43.4534H57.0994L56.6896 45.9233H56.0209ZM63.022 44.23L63.4318 41.7817H64.0682L63.3779 45.9233H62.7416L62.8602 45.2222H62.8171C62.6876 45.4326 62.507 45.6114 62.2751 45.7588C62.0432 45.9044 61.7709 45.9772 61.4581 45.9772C61.1992 45.9772 60.9781 45.9206 60.7948 45.8074C60.6132 45.6923 60.4838 45.5197 60.4065 45.2896C60.331 45.0578 60.322 44.7657 60.3795 44.4133L60.8217 41.7817H61.4581L61.0267 44.3702C60.9781 44.6722 61.024 44.9131 61.1642 45.0928C61.3044 45.2726 61.5066 45.3625 61.7709 45.3625C61.9291 45.3625 62.0962 45.322 62.2724 45.2411C62.4503 45.1602 62.6085 45.0362 62.7469 44.869C62.8872 44.7018 62.9788 44.4888 63.022 44.23ZM67.0348 41.7817L66.9486 42.321H64.8023L64.8885 41.7817H67.0348ZM65.6759 40.7894H66.3122L65.6543 44.7369C65.6255 44.9167 65.63 45.0515 65.6678 45.1413C65.7073 45.2294 65.7667 45.2887 65.8457 45.3193C65.9266 45.3481 66.0138 45.3625 66.1073 45.3625C66.1774 45.3625 66.2349 45.3589 66.2799 45.3517C66.3248 45.3427 66.3608 45.3355 66.3877 45.3301L66.4309 45.9017C66.3823 45.9179 66.3167 45.9341 66.234 45.9503C66.1531 45.9682 66.0534 45.9772 65.9347 45.9772C65.755 45.9772 65.586 45.9386 65.4278 45.8613C65.2696 45.784 65.1483 45.6662 65.0638 45.5081C64.9793 45.3499 64.9568 45.1503 64.9964 44.9095L65.6759 40.7894ZM70.1923 44.23L70.6021 41.7817H71.2385L70.5482 45.9233H69.9119L70.0305 45.2222H69.9874C69.8579 45.4326 69.6773 45.6114 69.4454 45.7588C69.2135 45.9044 68.9412 45.9772 68.6284 45.9772C68.3695 45.9772 68.1484 45.9206 67.9651 45.8074C67.7835 45.6923 67.6541 45.5197 67.5768 45.2896C67.5013 45.0578 67.4923 44.7657 67.5498 44.4133L67.992 41.7817H68.6284L68.197 44.3702C68.1484 44.6722 68.1943 44.9131 68.3345 45.0928C68.4747 45.2726 68.6769 45.3625 68.9412 45.3625C69.0994 45.3625 69.2665 45.322 69.4427 45.2411C69.6207 45.1602 69.7788 45.0362 69.9173 44.869C70.0575 44.7018 70.1491 44.4888 70.1923 44.23ZM71.7137 45.9233L72.404 41.7817H73.0187L72.9109 42.4072H72.954C73.0619 42.2023 73.2264 42.036 73.4475 41.9084C73.6686 41.7808 73.9032 41.717 74.1512 41.717C74.1998 41.717 74.2582 41.7179 74.3265 41.7197C74.3948 41.7197 74.4478 41.7224 74.4856 41.7278L74.3777 42.3749C74.3561 42.3695 74.3076 42.3614 74.2321 42.3506C74.1566 42.338 74.0757 42.3317 73.9894 42.3317C73.7881 42.3317 73.6021 42.374 73.4313 42.4585C73.2605 42.5412 73.1176 42.6562 73.0026 42.8036C72.8875 42.9492 72.8138 43.1155 72.7815 43.3024L72.35 45.9233H71.7137ZM76.1533 46.0096C75.756 46.0096 75.4279 45.9215 75.1691 45.7453C74.9102 45.5674 74.7296 45.3193 74.6271 45.0011C74.5247 44.6812 74.5085 44.3091 74.5786 43.8848C74.6487 43.4606 74.788 43.0867 74.9965 42.7632C75.205 42.4378 75.4648 42.1843 75.7758 42.0028C76.0868 41.8194 76.4283 41.7278 76.8004 41.7278C77.0161 41.7278 77.2237 41.7637 77.4233 41.8356C77.6228 41.9075 77.7954 42.0244 77.941 42.1861C78.0866 42.3461 78.1881 42.5582 78.2456 42.8225C78.3032 43.0867 78.2996 43.4121 78.2349 43.7986L78.1917 44.0682H74.9992L75.0855 43.5181H77.6309C77.6722 43.2845 77.6614 43.0759 77.5985 42.8926C77.5374 42.7092 77.4304 42.5645 77.2777 42.4585C77.1267 42.3524 76.9352 42.2994 76.7033 42.2994C76.4642 42.2994 76.2413 42.3641 76.0346 42.4935C75.8279 42.6211 75.6553 42.7829 75.5169 42.9789C75.3785 43.173 75.2922 43.3707 75.2581 43.5721L75.1826 44.0466C75.1286 44.39 75.1367 44.6632 75.2068 44.8663C75.2787 45.0694 75.4037 45.2159 75.5816 45.3058C75.7596 45.3939 75.9825 45.4379 76.2503 45.4379C76.4211 45.4379 76.5784 45.4146 76.7222 45.3678C76.866 45.3193 76.9945 45.2474 77.1078 45.1521C77.221 45.0551 77.3163 44.9346 77.3936 44.7908L77.976 44.9634C77.8771 45.1719 77.7378 45.3553 77.5581 45.5134C77.3801 45.6698 77.1716 45.7921 76.9325 45.8802C76.6952 45.9664 76.4355 46.0096 76.1533 46.0096ZM82.7068 46.0096C82.3257 46.0096 82.0066 45.9188 81.7496 45.7372C81.4925 45.5557 81.311 45.3013 81.2049 44.9742C81.1006 44.647 81.0836 44.2659 81.1537 43.8309C81.222 43.4067 81.3577 43.0373 81.5608 42.7227C81.7657 42.4063 82.0201 42.1619 82.3239 41.9893C82.6295 41.8149 82.9656 41.7278 83.3323 41.7278C83.7134 41.7278 84.0316 41.8194 84.2868 42.0028C84.5439 42.1843 84.7255 42.4396 84.8315 42.7685C84.9376 43.0957 84.9555 43.4786 84.8854 43.9172C84.8171 44.3378 84.6796 44.7054 84.4729 45.02C84.268 45.3328 84.0136 45.5764 83.7098 45.7507C83.4078 45.9233 83.0735 46.0096 82.7068 46.0096ZM82.7176 45.4379C83.0088 45.4379 83.2613 45.3633 83.4752 45.2142C83.6909 45.065 83.8653 44.8681 83.9983 44.6236C84.1332 44.3792 84.2239 44.1149 84.2707 43.8309C84.3138 43.5613 84.312 43.3105 84.2653 43.0786C84.2185 42.8449 84.1188 42.6571 83.966 42.5151C83.8132 42.3713 83.5984 42.2994 83.3215 42.2994C83.0303 42.2994 82.776 42.3749 82.5585 42.5259C82.3428 42.6769 82.1684 42.8755 82.0354 43.1218C81.9024 43.368 81.8134 43.6332 81.7684 43.9172C81.7253 44.1868 81.7262 44.4376 81.7711 44.6695C81.8179 44.8996 81.9176 45.0856 82.0704 45.2276C82.225 45.3678 82.4407 45.4379 82.7176 45.4379ZM88.0624 41.7817L87.9761 42.321H85.7436L85.8298 41.7817H88.0624ZM85.8083 45.9233L86.5956 41.2101C86.6316 40.9728 86.7178 40.775 86.8545 40.6169C86.9929 40.4587 87.1573 40.34 87.3479 40.2609C87.5402 40.1818 87.7353 40.1423 87.933 40.1423C88.0894 40.1423 88.2143 40.1549 88.3078 40.18C88.4031 40.2052 88.4723 40.2286 88.5154 40.2501L88.2458 40.8002C88.2134 40.7894 88.1703 40.7759 88.1164 40.7598C88.0642 40.7436 87.9923 40.7355 87.9006 40.7355C87.6903 40.7355 87.5303 40.7885 87.4207 40.8946C87.311 41.0006 87.2373 41.1561 87.1996 41.361L86.4446 45.9233H85.8083ZM91.0035 40.9943L91.1006 40.4011H95.2422L95.1451 40.9943H93.4086L92.5889 45.9233H91.9202L92.7399 40.9943H91.0035ZM96.3962 46.0096C95.9989 46.0096 95.6709 45.9215 95.412 45.7453C95.1532 45.5674 94.9725 45.3193 94.8701 45.0011C94.7676 44.6812 94.7514 44.3091 94.8215 43.8848C94.8916 43.4606 95.031 43.0867 95.2395 42.7632C95.448 42.4378 95.7077 42.1843 96.0187 42.0028C96.3297 41.8194 96.6712 41.7278 97.0433 41.7278C97.259 41.7278 97.4667 41.7637 97.6662 41.8356C97.8657 41.9075 98.0383 42.0244 98.1839 42.1861C98.3295 42.3461 98.4311 42.5582 98.4886 42.8225C98.5461 43.0867 98.5425 43.4121 98.4778 43.7986L98.4347 44.0682H95.2422L95.3285 43.5181H97.8738C97.9152 43.2845 97.9044 43.0759 97.8415 42.8926C97.7803 42.7092 97.6734 42.5645 97.5206 42.4585C97.3696 42.3524 97.1782 42.2994 96.9463 42.2994C96.7072 42.2994 96.4843 42.3641 96.2776 42.4935C96.0708 42.6211 95.8983 42.7829 95.7599 42.9789C95.6215 43.173 95.5352 43.3707 95.501 43.5721L95.4255 44.0466C95.3716 44.39 95.3797 44.6632 95.4498 44.8663C95.5217 45.0694 95.6466 45.2159 95.8246 45.3058C96.0025 45.3939 96.2254 45.4379 96.4933 45.4379C96.664 45.4379 96.8213 45.4146 96.9651 45.3678C97.1089 45.3193 97.2375 45.2474 97.3507 45.1521C97.464 45.0551 97.5592 44.9346 97.6365 44.7908L98.219 44.9634C98.1201 45.1719 97.9808 45.3553 97.801 45.5134C97.6231 45.6698 97.4145 45.7921 97.1755 45.8802C96.9382 45.9664 96.6784 46.0096 96.3962 46.0096ZM100.776 46.0096C100.386 46.0096 100.066 45.9179 99.8166 45.7345C99.5685 45.5512 99.3959 45.2986 99.2988 44.9769C99.2018 44.6551 99.1874 44.2875 99.2557 43.8741C99.324 43.4534 99.4624 43.0822 99.6709 42.7605C99.8795 42.4369 100.139 42.1843 100.45 42.0028C100.761 41.8194 101.104 41.7278 101.478 41.7278C101.769 41.7278 102.022 41.7817 102.238 41.8895C102.454 41.9974 102.62 42.1484 102.737 42.3425C102.854 42.5367 102.908 42.7632 102.901 43.022H102.265C102.247 42.8333 102.166 42.6661 102.022 42.5205C101.88 42.3731 101.67 42.2994 101.391 42.2994C101.143 42.2994 100.915 42.3641 100.706 42.4935C100.498 42.6211 100.323 42.8018 100.181 43.0355C100.039 43.2674 99.9424 43.5397 99.892 43.8525C99.8381 44.1725 99.8426 44.4511 99.9055 44.6884C99.9684 44.9256 100.083 45.1099 100.248 45.2411C100.413 45.3723 100.622 45.4379 100.874 45.4379C101.039 45.4379 101.193 45.4092 101.337 45.3517C101.481 45.2941 101.609 45.2115 101.72 45.1036C101.832 44.9957 101.92 44.8663 101.984 44.7153H102.621C102.542 44.9598 102.415 45.18 102.241 45.3759C102.066 45.5701 101.855 45.7247 101.607 45.8397C101.359 45.953 101.082 46.0096 100.776 46.0096ZM104.392 43.4319L103.982 45.9233H103.346L104.263 40.4011H104.899L104.565 42.4288H104.619C104.748 42.2131 104.921 42.0423 105.136 41.9165C105.354 41.7907 105.627 41.7278 105.956 41.7278C106.237 41.7278 106.473 41.7844 106.665 41.8976C106.859 42.0091 106.996 42.1807 107.075 42.4126C107.156 42.6427 107.168 42.9357 107.11 43.2916L106.668 45.9233H106.032L106.463 43.3348C106.517 43.0058 106.473 42.7515 106.331 42.5717C106.191 42.3902 105.972 42.2994 105.676 42.2994C105.467 42.2994 105.273 42.3434 105.093 42.4315C104.915 42.5196 104.764 42.6481 104.64 42.8171C104.518 42.9861 104.435 43.191 104.392 43.4319ZM108.878 43.4319L108.469 45.9233H107.832L108.522 41.7817H109.137L109.029 42.4288H109.083C109.213 42.2185 109.388 42.0495 109.609 41.9219C109.83 41.7925 110.097 41.7278 110.41 41.7278C110.687 41.7278 110.92 41.7853 111.111 41.9003C111.303 42.0136 111.439 42.1861 111.518 42.418C111.599 42.6481 111.611 42.9393 111.553 43.2916L111.111 45.9233H110.475L110.906 43.3348C110.96 43.0112 110.918 42.7578 110.779 42.5744C110.643 42.3911 110.426 42.2994 110.129 42.2994C109.925 42.2994 109.735 42.3434 109.561 42.4315C109.388 42.5196 109.241 42.6481 109.121 42.8171C109.002 42.9861 108.921 43.191 108.878 43.4319ZM113.983 46.0096C113.602 46.0096 113.283 45.9188 113.026 45.7372C112.769 45.5557 112.587 45.3013 112.481 44.9742C112.377 44.647 112.36 44.2659 112.43 43.8309C112.498 43.4067 112.634 43.0373 112.837 42.7227C113.042 42.4063 113.297 42.1619 113.6 41.9893C113.906 41.8149 114.242 41.7278 114.609 41.7278C114.99 41.7278 115.308 41.8194 115.563 42.0028C115.82 42.1843 116.002 42.4396 116.108 42.7685C116.214 43.0957 116.232 43.4786 116.162 43.9172C116.094 44.3378 115.956 44.7054 115.749 45.02C115.544 45.3328 115.29 45.5764 114.986 45.7507C114.684 45.9233 114.35 46.0096 113.983 46.0096ZM113.994 45.4379C114.285 45.4379 114.538 45.3633 114.752 45.2142C114.967 45.065 115.142 44.8681 115.275 44.6236C115.41 44.3792 115.5 44.1149 115.547 43.8309C115.59 43.5613 115.588 43.3105 115.542 43.0786C115.495 42.8449 115.395 42.6571 115.242 42.5151C115.09 42.3713 114.875 42.2994 114.598 42.2994C114.307 42.2994 114.052 42.3749 113.835 42.5259C113.619 42.6769 113.445 42.8755 113.312 43.1218C113.179 43.368 113.09 43.6332 113.045 43.9172C113.002 44.1868 113.003 44.4376 113.048 44.6695C113.094 44.8996 113.194 45.0856 113.347 45.2276C113.501 45.3678 113.717 45.4379 113.994 45.4379ZM118.357 40.4011L117.441 45.9233H116.804L117.721 40.4011H118.357ZM120.316 46.0096C119.935 46.0096 119.615 45.9188 119.358 45.7372C119.101 45.5557 118.92 45.3013 118.814 44.9742C118.71 44.647 118.692 44.2659 118.763 43.8309C118.831 43.4067 118.967 43.0373 119.17 42.7227C119.375 42.4063 119.629 42.1619 119.933 41.9893C120.238 41.8149 120.574 41.7278 120.941 41.7278C121.322 41.7278 121.64 41.8194 121.896 42.0028C122.153 42.1843 122.334 42.4396 122.44 42.7685C122.546 43.0957 122.564 43.4786 122.494 43.9172C122.426 44.3378 122.288 44.7054 122.082 45.02C121.877 45.3328 121.622 45.5764 121.319 45.7507C121.017 45.9233 120.682 46.0096 120.316 46.0096ZM120.326 45.4379C120.618 45.4379 120.87 45.3633 121.084 45.2142C121.3 45.065 121.474 44.8681 121.607 44.6236C121.742 44.3792 121.833 44.1149 121.88 43.8309C121.923 43.5613 121.921 43.3105 121.874 43.0786C121.827 42.8449 121.728 42.6571 121.575 42.5151C121.422 42.3713 121.207 42.2994 120.93 42.2994C120.639 42.2994 120.385 42.3749 120.167 42.5259C119.952 42.6769 119.777 42.8755 119.644 43.1218C119.511 43.368 119.422 43.6332 119.377 43.9172C119.334 44.1868 119.335 44.4376 119.38 44.6695C119.427 44.8996 119.527 45.0856 119.679 45.2276C119.834 45.3678 120.05 45.4379 120.326 45.4379ZM124.55 47.5627C124.24 47.5627 123.982 47.5231 123.773 47.444C123.565 47.3667 123.397 47.2643 123.272 47.1367C123.146 47.0108 123.05 46.876 122.986 46.7322L123.557 46.3763C123.6 46.4518 123.656 46.5381 123.725 46.6351C123.793 46.734 123.896 46.8194 124.035 46.8913C124.175 46.965 124.372 47.0018 124.625 47.0018C124.958 47.0018 125.249 46.9209 125.499 46.7592C125.749 46.5974 125.903 46.3439 125.963 45.9988L126.092 45.1575H126.038C125.98 45.233 125.9 45.3265 125.798 45.4379C125.696 45.5476 125.558 45.6456 125.385 45.7319C125.213 45.8163 124.992 45.8586 124.722 45.8586C124.386 45.8586 124.098 45.7795 123.859 45.6213C123.62 45.4631 123.449 45.233 123.344 44.931C123.242 44.629 123.227 44.2623 123.298 43.8309C123.369 43.4067 123.503 43.0373 123.703 42.7227C123.904 42.4063 124.152 42.1619 124.447 41.9893C124.742 41.8149 125.064 41.7278 125.412 41.7278C125.682 41.7278 125.889 41.7727 126.033 41.8626C126.178 41.9507 126.284 42.0513 126.351 42.1646C126.417 42.276 126.468 42.3677 126.502 42.4396H126.566L126.674 41.7817H127.289L126.588 46.0419C126.529 46.3979 126.4 46.6873 126.202 46.9102C126.005 47.1349 125.762 47.2993 125.474 47.4036C125.187 47.5097 124.879 47.5627 124.55 47.5627ZM124.884 45.287C125.137 45.287 125.363 45.2285 125.561 45.1117C125.76 44.9948 125.926 44.8268 126.057 44.6075C126.188 44.3882 126.279 44.1257 126.329 43.8201C126.38 43.5217 126.376 43.2584 126.318 43.0301C126.261 42.8018 126.152 42.6229 125.992 42.4935C125.834 42.3641 125.626 42.2994 125.369 42.2994C125.098 42.2994 124.863 42.3677 124.666 42.5043C124.47 42.6409 124.311 42.8243 124.188 43.0544C124.066 43.2845 123.982 43.5397 123.935 43.8201C123.888 44.1077 123.89 44.3621 123.94 44.5832C123.991 44.8025 124.093 44.9751 124.248 45.1009C124.404 45.2249 124.616 45.287 124.884 45.287ZM127.92 47.4764C127.812 47.4764 127.717 47.4674 127.634 47.4494C127.553 47.4333 127.498 47.4171 127.467 47.4009L127.726 46.8401C127.873 46.8796 128.005 46.8913 128.12 46.8751C128.236 46.8607 128.347 46.8041 128.451 46.7052C128.557 46.6082 128.668 46.4554 128.783 46.2469L128.961 45.9233L128.13 41.7817H128.794L129.387 45.0928H129.43L131.123 41.7817H131.841L129.301 46.5219C129.182 46.743 129.052 46.9236 128.91 47.0639C128.768 47.2041 128.614 47.3074 128.449 47.3739C128.283 47.4422 128.107 47.4764 127.92 47.4764Z" fill="#176AF6"/>
</svg>
